<svg xmlns="http://www.w3.org/2000/svg" viewBox="0 0 256 256" width="48" height="48">
    <path d="M244.07 187.744c-9.585-17.248-34.273-37.973-44.465-46.992-2.79-2.47-3.088-6.741-.55-9.472 19.452-20.901 35.009-44.917 40.364-59.43 2.362-6.41-2.528-13.183-9.42-13.183h-20.015c-6.597 0-10.459 2.368-12.299 6.138-16.165 33.126-30.032 47.462-39.738 55.84-5.435 4.694-13.91.806-13.91-6.336V70.15c0-6.117-5.002-11.066-11.173-11.066l-36.565-.416c-4.603 0-7.232 5.21-4.47 8.864l6.038 8.666a17.246 17.246 0 013.498 10.406l-.032 39.029c0 6.79-8.23 10.107-13.114 5.35-16.528-16.097-30.87-48.966-36.032-64.683-1.494-4.55-5.755-7.622-10.587-7.632l-19.717-.048c-7.398 0-12.806 7.013-10.795 14.074 18.016 63.238 54.981 123.398 120.859 129.92 6.49.64 12.09-4.586 12.09-11.056v-20.512c0-5.882 4.614-10.938 10.544-11.088.208-.005.416-.005.624-.005 17.424 0 36.939 25.36 43.766 37.221 1.962 3.414 5.632 5.494 9.6 5.494h26.522c7.739 0 12.704-8.208 8.976-14.923z" fill="#fff" stroke-miterlimit="10" font-family="none" font-weight="none" font-size="none" text-anchor="none"/>
</svg>
